HIERARCHY
ROOT character_B_root
{
	OFFSET 0.000000 0.000000 0.000000
	CHANNELS 6 Xposition Yposition Zposition Xrotation Yrotation Zrotation
	JOINT character_B_pelvis
	{
		OFFSET 0.000000 0.000000 0.000000
		CHANNELS 3 Xrotation Yrotation Zrotation
		JOINT character_B_spine
		{
			OFFSET -0.005949 0.551378 0.000000
			CHANNELS 3 Xrotation Yrotation Zrotation
			JOINT character_B_head
			{
				OFFSET -0.011221 0.241134 0.000000
				CHANNELS 3 Xrotation Yrotation Zrotation
				JOINT character_B_nose
				{
					OFFSET -0.004159 -0.142665 -0.000261
					CHANNELS 3 Xrotation Yrotation Zrotation
					End Site
					{
						OFFSET 0.000000 0.050000 0.000000
					}
				}
			}
			JOINT character_B_left_shoulder
			{
				OFFSET 0.093188 -0.066956 0.092540
				CHANNELS 3 Xrotation Yrotation Zrotation
				JOINT character_B_left_elbow
				{
					OFFSET 0.026481 -0.252143 -0.089385
					CHANNELS 3 Xrotation Yrotation Zrotation
					JOINT character_B_left_wrist
					{
						OFFSET -0.001396 -0.164778 -0.154831
						CHANNELS 3 Xrotation Yrotation Zrotation
						End Site
						{
							OFFSET 0.000000 0.050000 0.000000
						}
					}
				}
			}
			JOINT character_B_right_shoulder
			{
				OFFSET -0.052646 -0.054758 0.152841
				CHANNELS 3 Xrotation Yrotation Zrotation
				JOINT character_B_right_elbow
				{
					OFFSET -0.025750 -0.252567 -0.055740
					CHANNELS 3 Xrotation Yrotation Zrotation
					JOINT character_B_right_wrist
					{
						OFFSET 0.022565 -0.178373 -0.161123
						CHANNELS 3 Xrotation Yrotation Zrotation
						End Site
						{
							OFFSET 0.000000 0.050000 0.000000
						}
					}
				}
			}
		}
		JOINT character_B_left_hip
		{
			OFFSET 0.053047 -0.014449 0.105832
			CHANNELS 3 Xrotation Yrotation Zrotation
			JOINT character_B_left_knee
			{
				OFFSET 0.010852 -0.388560 0.128200
				CHANNELS 3 Xrotation Yrotation Zrotation
				JOINT character_B_left_ankle
				{
					OFFSET -0.005897 -0.374408 0.161260
					CHANNELS 3 Xrotation Yrotation Zrotation
					JOINT character_B_left_big_toe
					{
						OFFSET 0.012109 -0.098215 0.034452
						CHANNELS 3 Xrotation Yrotation Zrotation
						End Site
						{
							OFFSET 0.000000 0.050000 0.000000
						}
					}
					JOINT character_B_left_small_toe
					{
						OFFSET 0.041617 -0.095586 0.019459
						CHANNELS 3 Xrotation Yrotation Zrotation
						End Site
						{
							OFFSET 0.000000 0.050000 0.000000
						}
					}
					JOINT character_B_left_heel
					{
						OFFSET -0.014884 -0.052778 0.025198
						CHANNELS 3 Xrotation Yrotation Zrotation
						End Site
						{
							OFFSET 0.000000 0.050000 0.000000
						}
					}
				}
			}
		}
		JOINT character_B_right_hip
		{
			OFFSET -0.043381 -0.011457 0.270438
			CHANNELS 3 Xrotation Yrotation Zrotation
			JOINT character_B_right_knee
			{
				OFFSET 0.014721 -0.382947 0.164918
				CHANNELS 3 Xrotation Yrotation Zrotation
				JOINT character_B_right_ankle
				{
					OFFSET 0.029970 -0.363014 0.179744
					CHANNELS 3 Xrotation Yrotation Zrotation
					JOINT character_B_right_big_toe
					{
						OFFSET 0.007171 -0.100675 0.041990
						CHANNELS 3 Xrotation Yrotation Zrotation
						End Site
						{
							OFFSET 0.000000 0.050000 0.000000
						}
					}
					JOINT character_B_right_small_toe
					{
						OFFSET -0.022736 -0.093093 0.035638
						CHANNELS 3 Xrotation Yrotation Zrotation
						End Site
						{
							OFFSET 0.000000 0.050000 0.000000
						}
					}
					JOINT character_B_right_heel
					{
						OFFSET 0.012696 -0.052984 0.028899
						CHANNELS 3 Xrotation Yrotation Zrotation
						End Site
						{
							OFFSET 0.000000 0.050000 0.000000
						}
					}
				}
			}
		}
	}
}
MOTION
Frames: 5
Frame Time: 0.03333333
0.165957 -0.103352 -0.295037 0.000000 0.000000 0.000000 -1.274818 -5.422921 1.015637 -2.064777 0.547914 16.843344 4.606915 3.703426 -26.247593 -0.000000 0.000000 -0.000000 -4.051548 -1.754183 -0.944662 -7.998226 8.320739 -13.298204 -0.000000 0.000000 0.000000 -18.374534 13.555921 -15.593528 46.667848 18.621105 -27.937230 -0.000000 0.000000 -0.000000 2.830360 1.202388 -13.474130 2.474740 17.216304 36.068426 141.333617 0.648991 -147.132098 0.000000 0.000000 0.000000 0.000000 0.000000 0.000000 0.000000 0.000000 0.000000 -8.268873 2.565564 -7.973977 -2.251064 -0.968670 0.663255 9.793896 42.780339 -46.294641 -0.000000 0.000000 -0.000000 -0.000000 0.000000 -0.000000 -0.000000 0.000000 -0.000000
0.164054 -0.108570 -0.356123 0.000000 0.000000 0.000000 -1.321327 -4.873731 -0.030867 -2.620173 0.469564 16.923812 4.963164 3.126058 -26.781163 0.000000 0.000000 -0.000000 -2.733405 -1.183786 -3.187831 -4.716399 12.381825 -16.517520 0.000000 0.000000 -0.000000 -17.717567 13.141322 -16.309579 39.186960 18.989739 -24.328278 0.000000 0.000000 0.000000 -1.165534 1.536574 -10.544198 1.317473 13.856449 33.191384 146.527806 -2.457374 -148.513192 -0.000000 0.000000 -0.000000 -0.000000 0.000000 -0.000000 -0.000000 0.000000 -0.000000 -10.141288 1.558083 -8.003423 -1.619640 -0.684586 1.630869 10.591581 36.600752 -43.769351 -0.000000 0.000000 0.000000 -0.000000 0.000000 0.000000 -0.000000 0.000000 0.000000
0.170069 -0.110558 -0.397908 0.000000 0.000000 0.000000 -1.257068 -3.655037 -0.263101 -2.816815 -0.546215 16.117407 4.980930 2.972038 -26.828483 -0.000000 0.000000 0.000000 -6.801624 0.415070 -5.690163 6.943231 17.834073 -22.534929 0.000000 0.000000 0.000000 -15.980780 11.937450 -15.801643 33.716037 17.694723 -21.566771 0.000000 0.000000 0.000000 -3.321034 0.260391 -10.870876 -0.815538 12.102200 32.860589 151.646899 -1.893484 -148.170329 -0.000000 0.000000 0.000000 -0.000000 0.000000 0.000000 -0.000000 0.000000 0.000000 -11.864493 -0.348786 -10.279364 1.960917 1.177459 5.255076 6.342328 20.056829 -38.513107 0.000000 0.000000 -0.000000 0.000000 0.000000 -0.000000 0.000000 0.000000 -0.000000
0.173558 -0.112386 -0.427978 0.000000 0.000000 0.000000 -1.153791 -1.502485 -0.530434 -3.530335 -2.953763 15.625424 5.621057 3.092212 -26.869843 0.000000 0.000000 0.000000 -8.746166 2.854216 -9.484952 18.764681 23.694003 -29.705061 -0.000000 0.000000 -0.000000 -12.776823 10.716232 -15.305836 27.661099 16.207578 -19.274138 -0.000000 0.000000 -0.000000 -3.529489 -2.023508 -11.166499 -4.905033 9.807918 31.698352 156.303972 3.374194 -145.138955 0.000000 0.000000 0.000000 0.000000 0.000000 0.000000 0.000000 0.000000 0.000000 -12.554312 -2.940525 -12.012872 5.087079 3.549094 9.215578 5.470134 9.288696 -37.769926 -0.000000 0.000000 0.000000 -0.000000 0.000000 0.000000 -0.000000 0.000000 0.000000
0.182817 -0.110760 -0.463279 0.000000 0.000000 0.000000 -0.609252 0.029530 -0.575621 -4.728310 -4.093068 14.775481 6.115449 2.611793 -25.057096 0.000000 0.000000 -0.000000 -9.601612 5.208077 -14.301454 30.922907 30.151345 -38.844033 0.000000 0.000000 0.000000 -9.322429 8.505137 -14.081895 26.323562 14.583326 -18.479705 0.000000 0.000000 -0.000000 -2.745817 -3.599124 -11.015735 -8.524915 7.418721 28.103455 159.906079 5.745530 -144.113175 -0.000000 0.000000 -0.000000 -0.000000 0.000000 -0.000000 -0.000000 0.000000 -0.000000 -13.406351 -5.053596 -14.443191 7.073522 6.534440 14.436618 11.983954 5.956339 -38.157554 0.000000 0.000000 0.000000 0.000000 0.000000 0.000000 0.000000 0.000000 0.000000
